<svg xmlns="http://www.w3.org/2000/svg" viewBox="0 0 48 48" fill="none">
  <defs>
    <filter id="brand-shadow" x="-30%" y="-30%" width="160%" height="160%">
      <feDropShadow dx="0" dy="2" stdDeviation="3" flood-color="#000000" flood-opacity="0.2" />
    </filter>
    <linearGradient id="brand-grad1" x1="0%" y1="0%" x2="100%" y2="100%">
      <stop offset="0%" stop-color="#12B7F5" />
      <stop offset="100%" stop-color="#0D9BE0" />
    </linearGradient>
    <linearGradient id="brand-grad2" x1="0%" y1="100%" x2="100%" y2="0%">
      <stop offset="0%" stop-color="#06B6D4" />
      <stop offset="100%" stop-color="#0E7490" />
    </linearGradient>
    <linearGradient id="brand-grad-tail" x1="0%" y1="0%" x2="100%" y2="100%">
      <stop offset="0%" stop-color="#22D3EE" />
      <stop offset="100%" stop-color="#0891B2" />
    </linearGradient>
  </defs>
  <g filter="url(#brand-shadow)" transform="translate(24, 24) scale(0.82) translate(-24, -24)">
    <path d="M 24 42 A 18 18 0 1 0 11.27 11.27 A 22 22 0 1 1 24 42 Z" fill="url(#brand-grad2)" opacity="0.95" />
    <path d="M 24 6 A 18 18 0 1 0 36.73 36.73 A 22 22 0 1 1 24 6 Z" fill="url(#brand-grad1)" opacity="0.95" />
    <path d="M 22 26 C 28 26 38 34 44 44 C 38 40 30 32 24 30 C 22 29 20 27 22 26 Z" fill="url(#brand-grad-tail)" opacity="0.95" />
  </g>
</svg>
